# xmcd
#
# Track frame offsets:
#	150
#	18265
#	50717
#	75940
#	97231
#	117275
#	155522
#	178151
#
# Disc length: 2713 seconds
#
# Revision: 1
# Processed by: cddbd v1.5.2PL0 Copyright (c) Steve Scherf et al.
# Submitted via: EasyCDDAExtractor 10.2.0.1
#
DISCID=600a9708
DTITLE=Eric Clapton - Just One Night [CD1]
DYEAR=1980
DGENRE=Blues
TTITLE0=Tulsa Time
TTITLE1=Early In The Morning
TTITLE2=Lay Down Sally
TTITLE3=Wonderful Tonight
TTITLE4=If I Don't Be There By Morning
TTITLE5=Worried Life Blues
TTITLE6=All Our Past Times
TTITLE7=After Midnight
EXTD=
EXTT0=
EXTT1=
EXTT2=
EXTT3=
EXTT4=
EXTT5=
EXTT6=
EXTT7=
PLAYORDER=
